<svg width="32" height="32" viewBox="0 0 32 32" fill="none" xmlns="http://www.w3.org/2000/svg">
<g clip-path="url(#clip0_13_34)">
<path opacity="0.2" d="M15 9H2C1.73478 9 1.48043 9.10536 1.29289 9.29289C1.10536 9.48043 1 9.73478 1 10V23C1 22.2044 1.31607 21.4413 1.87868 20.8787C2.44129 20.3161 3.20435 20 4 20C4.79565 20 5.55871 20.3161 6.12132 20.8787C6.68393 21.4413 7 22.2044 7 23C7 22.2044 7.31607 21.4413 7.87868 20.8787C8.44129 20.3161 9.20435 20 10 20C10.7956 20 11.5587 20.3161 12.1213 20.8787C12.6839 21.4413 13 22.2044 13 23H15V9Z" fill="#194F90"/>
<path opacity="0.2" d="M27 13V12C27 10.4087 26.3679 8.88258 25.2426 7.75736C24.1174 6.63214 22.5913 6 21 6H20C19.7348 6 19.4804 6.10536 19.2929 6.29289C19.1054 6.48043 19 6.73478 19 7V23H25C25 22.2044 25.3161 21.4413 25.8787 20.8787C26.4413 20.3161 27.2044 20 28 20C28.7956 20 29.5587 20.3161 30.1213 20.8787C30.6839 21.4413 31 22.2044 31 23V17C31 15.9391 30.5786 14.9217 29.8284 14.1716C29.0783 13.4214 28.0609 13 27 13Z" fill="#194F90"/>
<path d="M28 26C29.6569 26 31 24.6569 31 23C31 21.3431 29.6569 20 28 20C26.3431 20 25 21.3431 25 23C25 24.6569 26.3431 26 28 26Z" stroke="#194F90" stroke-width="2" stroke-linecap="round" stroke-linejoin="round"/>
<path d="M4 26C5.65685 26 7 24.6569 7 23C7 21.3431 5.65685 20 4 20C2.34315 20 1 21.3431 1 23C1 24.6569 2.34315 26 4 26Z" stroke="#194F90" stroke-width="2" stroke-linecap="round" stroke-linejoin="round"/>
<path d="M10 26C11.6569 26 13 24.6569 13 23C13 21.3431 11.6569 20 10 20C8.34315 20 7 21.3431 7 23C7 24.6569 8.34315 26 10 26Z" stroke="#194F90" stroke-width="2" stroke-linecap="round" stroke-linejoin="round"/>
<path d="M25 23H13" stroke="#194F90" stroke-width="2" stroke-linecap="round" stroke-linejoin="round"/>
<path d="M19 23V7C19 6.73478 19.1054 6.48043 19.2929 6.29289C19.4804 6.10536 19.7348 6 20 6H21C22.5913 6 24.1174 6.63214 25.2426 7.75736C26.3679 8.88258 27 10.4087 27 12V13C28.0609 13 29.0783 13.4214 29.8284 14.1716C30.5786 14.9217 31 15.9391 31 17V23" stroke="#194F90" stroke-width="2" stroke-linecap="round" stroke-linejoin="round"/>
<path d="M15 23V9H2C1.73478 9 1.48043 9.10536 1.29289 9.29289C1.10536 9.48043 1 9.73478 1 10V23" stroke="#194F90" stroke-width="2" stroke-linecap="round" stroke-linejoin="round"/>
</g>
<defs>
<clipPath id="clip0_13_34">
<rect width="32" height="32" fill="white"/>
</clipPath>
</defs>
</svg>
